<?xml version="1.0" encoding="UTF-8"?>
<svg width="96" height="75" data-name="Layer 4" version="1.1" viewBox="0 0 96 75" xmlns="http://www.w3.org/2000/svg" xmlns:cc="http://creativecommons.org/ns#" xmlns:dc="http://purl.org/dc/elements/1.1/" xmlns:rdf="http://www.w3.org/1999/02/22-rdf-syntax-ns#">
 <metadata>
  <rdf:RDF>
   <cc:Work rdf:about="">
    <dc:format>image/svg+xml</dc:format>
    <dc:type rdf:resource="http://purl.org/dc/dcmitype/StillImage"/>
    <dc:title>nhs-digital-logo_nhs-blue_rgb-01a</dc:title>
   </cc:Work>
  </rdf:RDF>
 </metadata>
 <title>nhs-digital-logo_nhs-blue_rgb-01a</title>
 <g transform="matrix(.27994 0 0 .27994 -17.059 -16.737)">
  <rect x="71.05" y="69.9" width="321.92" height="120.92" fill="#fff"/>
  <g fill="#231f20">
   <path d="m64.51 237.33h18.22c20.41 0 38.45 6.86 38.45 33.3s-18 33.29-38.45 33.29h-18.22zm13.35 56.1h7.43c11.17 0 21.95-8.3 21.95-22.88s-10.78-22.88-21.95-22.88h-7.43z"/>
   <path d="m130.63 233.62h12.77v12.21h-12.77zm0 21.24h12.77v49.14h-12.77z"/>
   <path d="m200.14 254.8v44.37c0 13.35-5.34 25.95-25.95 25.95a43.36 43.36 0 0 1-17-3.27l1-10.89c3.9 2.1 10.31 4.3 14.31 4.3 14.12 0 14.71-10.59 14.71-19.08h-0.21c-2.39 4.19-8.17 7.82-15.27 7.82-14.49 0-20-11.63-20-24.8 0-11.83 6.11-25.48 20.8-25.48 6.54 0 11.54 2.19 15.07 7.83h0.2v-6.69h12.3zm-12.78 24c0-8.4-3.27-15.27-10.69-15.27-8.67 0-11.43 8-11.43 15.56 0 6.68 3.53 14.89 10.88 14.89 7.92 0 11.18-7 11.18-15.18z"/>
   <path d="m211.58 233.62h12.78v12.21h-12.78zm0 21.24h12.78v49.14h-12.78z"/>
   <path d="m242.06 264.15h-9.45v-9.35h9.45v-9.8l12.77-4.1v13.93h11.36v9.34h-11.36v22.83c0 4.2 1.15 8.17 6 8.17a11.46 11.46 0 0 0 5.82-1.34l0.35 10.17a33.82 33.82 0 0 1-9.44 1.14c-10 0-15.56-6.19-15.56-15.93v-25z"/>
   <path d="m279.07 257.36a44 44 0 0 1 17.07-3.72c15 0 21.25 6.19 21.25 20.7v6.36c0 4.9 0.1 8.68 0.19 12.3s0.3 7.16 0.58 11h-11.26a58.38 58.38 0 0 1-0.57-7.35h-0.2a17.54 17.54 0 0 1-15.13 8.46c-8.67 0-17.17-5.24-17.17-14.59 0-7.35 3.53-11.63 8.4-14s11.16-2.86 16.5-2.86h7.06c0-7.92-3.53-10.59-11.06-10.59a25.7 25.7 0 0 0-15.16 5.35zm15 38.36a10.83 10.83 0 0 0 9-4.4 16.31 16.31 0 0 0 2.67-10.11h-5.54c-5.72 0-14.22 0.94-14.22 8.49-0.05 4.2 3.48 6.02 8.07 6.02z"/>
   <path d="m328.3 232.38h12.78v71.56h-12.78z"/>
  </g>
  <path d="m387.72 79.43-7.06 21.66a55.34 55.34 0 0 0-24.12-4.9c-11.58 0-21 1.64-21 10.44 0 15.43 42.49 9.68 42.49 42.74 0 30.08-28.06 37.89-53.44 37.89a122.71 122.71 0 0 1-33.84-5.62l6.9-22.14c5.78 3.76 17.38 6.24 26.94 6.24 9.11 0 23.36-1.72 23.36-12.94 0-17.47-42.49-10.92-42.49-41.62 0-28.08 24.77-36.49 48.74-36.49 13.49 0 26.15 1.42 33.54 4.9m-84.18-3.15-22.73 108.83h-29.3l9.73-46.62h-34.65l-9.7 46.62h-29.32l22.73-108.83h29.3l-8.62 41.63h34.63l8.62-41.63zm-104 0-23.23 108.84h-36.33l-22.92-75.28h-0.28l-15.23 75.31h-27.57l23.34-108.87h36.5l22.42 75.49h0.31l15.37-75.49zm200.74-13.08h-335.79v135.26h335.79z" fill="#005eb8"/>
 </g>
</svg>
